<?xml version="1.0" standalone="no"?>
<!DOCTYPE svg PUBLIC "-//W3C//DTD SVG 20010904//EN"
 "http://www.w3.org/TR/2001/REC-SVG-20010904/DTD/svg10.dtd">
<svg version="1.0" xmlns="http://www.w3.org/2000/svg"
 width="128.000000pt" height="128.000000pt" viewBox="0 0 128.000000 128.000000"
 preserveAspectRatio="xMidYMid meet">

<g transform="translate(0.000000,128.000000) scale(0.100000,-0.100000)"
fill="#fd5f17"  stroke-width="5">
<path d="M175 1259 c-121 -64 -160 -109 -170 -194 -27 -216 123 -481 440 -774
216 -199 434 -303 601 -288 98 9 131 32 192 134 42 70 48 97 28 128 -9 14 -78
66 -154 117 -163 110 -186 115 -236 53 -17 -22 -43 -53 -58 -70 l-27 -30 -53
27 c-111 58 -318 265 -376 376 l-27 53 30 27 c17 15 48 41 70 58 62 49 57 73
-53 236 -119 177 -132 187 -207 147z m174 -173 c45 -67 81 -131 81 -141 0 -12
-26 -41 -65 -73 -57 -46 -65 -56 -65 -86 0 -113 373 -486 486 -486 30 0 40 8
86 65 33 40 61 65 73 65 19 0 227 -131 272 -172 26 -24 22 -40 -31 -123 -46
-72 -81 -89 -176 -89 -92 1 -175 27 -284 89 -107 61 -172 112 -300 235 -252
243 -377 452 -379 635 -2 116 17 145 137 209 61 32 57 36 165 -128z"/>
<path d="M714 1096 c-9 -23 -5 -25 60 -36 164 -27 278 -139 307 -304 11 -68
23 -86 42 -67 8 8 8 28 0 77 -31 182 -167 313 -351 339 -43 6 -53 4 -58 -9z"/>
<path d="M710 963 c0 -16 9 -22 42 -27 57 -9 100 -31 141 -73 35 -35 67 -105
67 -149 0 -21 22 -39 34 -27 14 14 4 81 -18 128 -42 91 -122 151 -217 162 -44
5 -49 4 -49 -14z"/>
<path d="M710 832 c0 -15 9 -21 34 -26 38 -7 86 -55 86 -86 0 -20 23 -43 33
-33 4 3 7 22 7 40 0 50 -61 112 -118 120 -37 5 -42 3 -42 -15z"/>
</g>
</svg>
